<?xml version="1.0" encoding="UTF-8" standalone="no"?>
<!-- Generator: Adobe Illustrator 16.0.0, SVG Export Plug-In . SVG Version: 6.00 Build 0)  -->

<svg
   xmlns:osb="http://www.openswatchbook.org/uri/2009/osb"
   xmlns:dc="http://purl.org/dc/elements/1.1/"
   xmlns:cc="http://creativecommons.org/ns#"
   xmlns:rdf="http://www.w3.org/1999/02/22-rdf-syntax-ns#"
   xmlns:svg="http://www.w3.org/2000/svg"
   xmlns="http://www.w3.org/2000/svg"
   xmlns:sodipodi="http://sodipodi.sourceforge.net/DTD/sodipodi-0.dtd"
   xmlns:inkscape="http://www.inkscape.org/namespaces/inkscape"
   version="1.1"
   id="Capa_1"
   x="0px"
   y="0px"
   fill="#f15d3b"
   width="612px"
   height="612px"
   viewBox="0 0 612 612"
   style="enable-background:new 0 0 612 612;"
   xml:space="preserve"
   sodipodi:docname="download-square.svg"
   inkscape:version="0.92.0 r15299"><metadata
     id="metadata3688"><rdf:RDF><cc:Work
         rdf:about=""><dc:format>image/svg+xml</dc:format><dc:type
           rdf:resource="http://purl.org/dc/dcmitype/StillImage" /><dc:title></dc:title></cc:Work></rdf:RDF></metadata><defs
     id="defs3686"><linearGradient
       id="linearGradient4529"
       osb:paint="solid"><stop
         style="stop-color:#0000ff;stop-opacity:1;"
         offset="0"
         id="stop4527" /></linearGradient></defs><sodipodi:namedview
     pagecolor="#ffffff"
     bordercolor="#666666"
     borderopacity="1"
     objecttolerance="10"
     gridtolerance="10"
     guidetolerance="10"
     inkscape:pageopacity="0"
     inkscape:pageshadow="2"
     inkscape:window-width="1920"
     inkscape:window-height="1017"
     id="namedview3684"
     showgrid="false"
     inkscape:zoom="0.97978195"
     inkscape:cx="41.198575"
     inkscape:cy="351.22147"
     inkscape:window-x="1592"
     inkscape:window-y="368"
     inkscape:window-maximized="1"
     inkscape:current-layer="_x37__24_" /><g
     id="_x37__24_"><path
       d="M306,0C137.012,0,0,136.992,0,306s137.012,306,306,306s306-137.012,306-306S475.008,0,306,0z M431.001,322.811    l-108.19,108.19c-4.59,4.59-10.862,6.005-16.811,4.953c-5.929,1.052-12.221-0.382-16.811-4.953l-108.19-108.19    c-7.478-7.478-7.478-19.583,0-27.042c7.478-7.478,19.584-7.478,27.043,0l78.833,78.814V172.125    c0-10.557,8.568-19.125,19.125-19.125c10.557,0,19.125,8.568,19.125,19.125v202.457l78.814-78.814    c7.478-7.478,19.584-7.478,27.042,0C438.46,303.227,438.46,315.333,431.001,322.811z"
       id="path3680" /><path
       style="color:#000000;font-style:normal;font-variant:normal;font-weight:normal;font-stretch:normal;font-size:medium;line-height:normal;font-family:sans-serif;font-variant-ligatures:normal;font-variant-position:normal;font-variant-caps:normal;font-variant-numeric:normal;font-variant-alternates:normal;font-feature-settings:normal;text-indent:0;text-align:start;text-decoration:none;text-decoration-line:none;text-decoration-style:solid;text-decoration-color:#000000;letter-spacing:normal;word-spacing:normal;text-transform:none;writing-mode:lr-tb;direction:ltr;text-orientation:mixed;dominant-baseline:auto;baseline-shift:baseline;text-anchor:start;white-space:normal;shape-padding:0;clip-rule:nonzero;display:inline;overflow:visible;visibility:visible;opacity:1;isolation:auto;mix-blend-mode:normal;color-interpolation:sRGB;color-interpolation-filters:linearRGB;solid-color:#000000;solid-opacity:1;vector-effect:none;fill:#f15d3b;fill-opacity:1;fill-rule:nonzero;stroke:#f15d3b;stroke-width:8.4;stroke-linecap:butt;stroke-linejoin:miter;stroke-miterlimit:4;stroke-dasharray:none;stroke-dashoffset:0;stroke-opacity:1;color-rendering:auto;image-rendering:auto;shape-rendering:auto;text-rendering:auto;enable-background:accumulate"
       d="M 692.47266,-104.01758 307.74023,-64.111328 305.6875,52.861328 506.67578,306.9043 414.00586,515.66797 302.60742,558.5918 l 0.0215,0.36718 6.15429,97.44336 407.19727,-12.27734 z m -0.96485,1.10352 23.44141,746.07031 -405.22852,12.2168 -6.07031,-96.11133 L 414.75,516.45312 507.83594,306.75586 306.69336,52.521484 308.72461,-63.208984 Z"
       id="path3694"
       inkscape:connector-curvature="0" /><path
       style="fill:#f15d3b;fill-opacity:1;fill-rule:nonzero;stroke:#f15d3b;stroke-width:8.57333565;stroke-miterlimit:4;stroke-dasharray:none;stroke-opacity:1"
       d="m 313.31003,638.26048 c -0.3716,-6.59585 -0.94508,-15.01571 -1.2744,-18.71077 l -0.59877,-6.71831 16.09953,-1.23711 c 76.92234,-5.91076 145.20224,-37.77094 198.52273,-92.63296 37.6412,-38.72944 64.45881,-87.12976 77.39768,-139.68705 6.32371,-25.68671 8.6005,-45.34904 8.56834,-73.99605 -0.0264,-23.52644 -1.54671,-39.18783 -5.89649,-60.74272 C 585.39905,141.81179 511.95504,55.938525 413.22013,18.98023 383.96715,8.0303038 344.85018,0.10828599 320.03512,0.10828599 h -7.46416 l 0.31346,-29.00469999 c 0.1724,-15.952585 0.59191,-29.282419 0.93225,-29.621854 0.34034,-0.339435 64.87001,-7.276503 143.39926,-15.415706 78.52925,-8.139204 162.28796,-16.828957 186.13047,-19.310562 23.84251,-2.481604 43.43235,-4.423321 43.53295,-4.314927 0.44608,0.480581 23.21423,735.520703 22.79463,735.895113 -0.2583,0.23048 -56.96179,2.11015 -126.00776,4.17706 -69.04598,2.0669 -154.24351,4.65026 -189.32785,5.74078 -35.08433,1.09053 -67.51637,1.98653 -72.0712,1.99112 l -8.2815,0.008 z"
       id="path4533"
       inkscape:connector-curvature="0" /></g></svg>